<svg id="Layer_1" data-name="Layer 1" xmlns="http://www.w3.org/2000/svg" viewBox="0 0 541.85 178.02"><defs><style>.cls-1{fill:#27363b;}.cls-2{fill:#4479bd;}</style></defs><title>logo</title><path class="cls-1" d="M226.23,217.93h-74A2.18,2.18,0,0,0,150,220.1V341.18a2.18,2.18,0,0,0,2.18,2.18h72.61a2.18,2.18,0,0,0,2.18-2.18V323.3a2.18,2.18,0,0,0-2.18-2.17H172.25V293h40.64a2.17,2.17,0,0,0,2.18-2.17V273.11a2.17,2.17,0,0,0-2.18-2.17H172.25v-31.1h54a2.17,2.17,0,0,0,2.17-2.17V220.1A2.17,2.17,0,0,0,226.23,217.93Z" transform="translate(-150.02 -208.63)"/><path class="cls-1" d="M330.64,209.14H312.92a2.18,2.18,0,0,0-2.17,2.18v46.44a43.92,43.92,0,0,0-23.08-6.58c-24.72,0-44.84,20.6-44.84,45.93s20.12,45.94,44.84,45.94a44,44,0,0,0,23.08-6.6v4.42a2.18,2.18,0,0,0,2.17,2.18h17.72a2.18,2.18,0,0,0,2.18-2.18V211.32A2.18,2.18,0,0,0,330.64,209.14Zm-43,65.21c11.67,0,20.94,7.9,22.61,19.23v7.07a22.48,22.48,0,0,1-22.61,19.69c-12.8,0-22.45-10-22.45-23.23C265.22,284.13,274.87,274.35,287.67,274.35Z" transform="translate(-150.02 -208.63)"/><rect class="cls-1" x="326.58" y="40.2" width="22.23" height="94.69" rx="2.18"/><path class="cls-1" d="M577.73,231.28l4.9-.77a2.18,2.18,0,0,0,1.84-2.15V210.81a2.19,2.19,0,0,0-.75-1.64,2.15,2.15,0,0,0-1.72-.52l-6.57.88c-22.9,3.05-40.17,23.24-40.17,47V273H524.57a2.17,2.17,0,0,0-2.17,2.17v16.94a2.18,2.18,0,0,0,2.17,2.18h10.69V341a2.17,2.17,0,0,0,2.17,2.17h17.41A2.18,2.18,0,0,0,557,341V294.27h25.27a2.19,2.19,0,0,0,2.18-2.18V275.15a2.18,2.18,0,0,0-2.18-2.17H557V256.33C557,241.27,567.42,232.9,577.73,231.28Z" transform="translate(-150.02 -208.63)"/><path class="cls-1" d="M691.51,249.8a2.17,2.17,0,0,0-1.82-1H670.21a2.19,2.19,0,0,0-2,1.29l-22,49.77-21.84-49.76a2.18,2.18,0,0,0-2-1.3h-19.7a2.15,2.15,0,0,0-1.82,1,2.19,2.19,0,0,0-.18,2.06L634.24,329l-21.88,50.88a2.17,2.17,0,0,0,.18,2,2.2,2.2,0,0,0,1.82,1h19.7a2.2,2.2,0,0,0,2-1.31l55.63-129.71A2.19,2.19,0,0,0,691.51,249.8Z" transform="translate(-150.02 -208.63)"/><rect class="cls-2" x="326.58" y="7.8" width="22.23" height="22.16" rx="2.18"/><path class="cls-1" d="M447.57,247.57H429.85a2.19,2.19,0,0,0-2.18,2.18v4.94a45,45,0,0,0-24.48-7.12c-25.59,0-46.41,21.38-46.41,47.66a49,49,0,0,0,6.37,24,45.78,45.78,0,0,0,64.52,16.36v7.84c-.88,10.47-12.84,21.13-23.71,21.13a24.31,24.31,0,0,1-20.18-11l-1.7-2.54a2.17,2.17,0,0,0-3.23-.44l-13.12,11.37a1.88,1.88,0,0,0-.46.55l-.26.45a2.16,2.16,0,0,0,.14,2.4l2.32,3.08c.35.47.71.92,1.2,1.51l5.17,5.38A45.42,45.42,0,0,0,404,386.65a46.25,46.25,0,0,0,28.57-10c10.94-8.93,17.21-22.61,17.21-37.55V249.75A2.19,2.19,0,0,0,447.57,247.57ZM403.19,269.8a24.87,24.87,0,0,1,24.33,21.56V299a23.57,23.57,0,0,1-.61,3.16,26.21,26.21,0,0,1-7.69,12.34,25.11,25.11,0,0,1-16,6.13A23.93,23.93,0,0,1,388,315.23a25,25,0,0,1-8.09-11.91,27.34,27.34,0,0,1-1.35-8.09C378.54,281.21,389.6,269.8,403.19,269.8Z" transform="translate(-150.02 -208.63)"/></svg>